<svg xmlns="http://www.w3.org/2000/svg" width="32" height="36" viewBox="0 0 32 36"><path fill="#f43070" d="M0 2.12v27.76C0 31.05.95 32 2.12 32h11.57L16 36l2.3-4h11.58c1.17 0 2.12-.95 2.12-2.12V2.12C32 .95 31.05 0 29.88 0H2.12C.95 0 0 .95 0 2.12"/><path fill="none" stroke="#fff" stroke-miterlimit="10" stroke-width="1.45" d="M7.05 26.75V13.87a2.8 2.8 0 0 1 2.78-2.77h6.38A2.8 2.8 0 0 1 19 13.87v12.88"/><path fill="none" stroke="#fff" stroke-miterlimit="10" stroke-width="1.45" d="M13.02 26.75v-18a2.8 2.8 0 0 1 2.77-2.78h6.38a2.8 2.8 0 0 1 2.78 2.78v18"/></svg>