<svg xmlns="http://www.w3.org/2000/svg" width="32" height="36" viewBox="0 0 32 36"><path fill="#f43070" d="M0 2.12v27.76C0 31.05.95 32 2.12 32h11.57L16 36l2.3-4h11.58c1.17 0 2.12-.95 2.12-2.12V2.12C32 .95 31.05 0 29.88 0H2.12C.95 0 0 .95 0 2.12"/><path fill="none" stroke="#fff" stroke-linecap="round" stroke-linejoin="round" stroke-width="1.61" d="M13.59 19.62a4.83 4.83 0 1 1-9.66 0 4.83 4.83 0 0 1 9.66 0m14.48 0a4.83 4.83 0 1 1-9.66 0 4.83 4.83 0 0 1 9.66 0"/><path fill="none" stroke="#fff" stroke-linecap="round" stroke-linejoin="round" stroke-width="1.61" d="m8.76 19.62 2.41-8.45h9.06M8.76 7.55h3.62m10.86 12.07L19.62 7.55h4.83m0 0h.6c1 0 1.82.8 1.82 1.8v0c0 1-.8 1.82-1.81 1.82h-.6"/></svg>