<svg xmlns="http://www.w3.org/2000/svg" width="32" height="36" viewBox="0 0 32 36"><path fill="#21bc12" d="M0 2.12v27.76C0 31.05.95 32 2.12 32h11.57L16 36l2.3-4h11.58c1.17 0 2.12-.95 2.12-2.12V2.12C32 .95 31.05 0 29.88 0H2.12C.95 0 0 .95 0 2.12"/><path fill="none" stroke="#fff" stroke-linecap="round" stroke-linejoin="round" stroke-width="1.91" d="m17.44 12.06-3.55-6.3H6.21"/><path fill="none" stroke="#fff" stroke-linecap="round" stroke-miterlimit="10" stroke-width="1.42" d="M6.2 19.42c1.96 0 1.96 1.08 3.92 1.08 1.95 0 1.95-1.08 3.91-1.08s1.96 1.08 3.92 1.08c1.95 0 1.96-1.08 3.92-1.08 1.97 0 1.96 1.08 3.92 1.08M6.2 22.4c1.96 0 1.96 1.1 3.92 1.1 1.95 0 1.95-1.09 3.9-1.09 1.96 0 1.97 1.08 3.93 1.08 1.95 0 1.96-1.08 3.92-1.08s1.96 1.08 3.91 1.08M6.21 25.4c1.96 0 1.96 1.09 3.92 1.09 1.95 0 1.95-1.07 3.9-1.07 1.96 0 1.97 1.07 3.93 1.07 1.95 0 1.96-1.07 3.92-1.07s1.96 1.07 3.91 1.07"/><path fill="none" stroke="#fff" stroke-linecap="round" stroke-linejoin="round" stroke-width="1.91" d="M6.2 12.06h19.6l-4.37 7.15"/><path fill="none" stroke="#fff" stroke-miterlimit="10" stroke-width="1.42" d="M8.9 5.76v6.3"/></svg>