<svg xmlns="http://www.w3.org/2000/svg" width="32" height="36" viewBox="0 0 32 36"><path fill="#21bc12" d="M0 2.12v27.76C0 31.05.95 32 2.12 32h11.57L16 36l2.3-4h11.58c1.17 0 2.12-.95 2.12-2.12V2.12C32 .95 31.05 0 29.88 0H2.12C.95 0 0 .95 0 2.12"/><path fill="none" stroke="#fff" stroke-miterlimit="10" stroke-width="1.43" d="M17.95 21.27h-3.9m-5.93 0h-.59a2.2 2.2 0 0 1-2.2-2.2v-9.1a2.2 2.2 0 0 1 2.2-2.21h16.94a2.2 2.2 0 0 1 2.2 2.21v9.1a2.2 2.2 0 0 1-2.2 2.2h-.59"/><circle cx="11.09" cy="21.27" r="2.97" fill="none" stroke="#fff" stroke-miterlimit="10" stroke-width="1.43"/><circle cx="20.92" cy="21.27" r="2.97" fill="none" stroke="#fff" stroke-miterlimit="10" stroke-width="1.43"/><path fill="none" stroke="#fff" stroke-miterlimit="10" stroke-width="1.43" d="M5.32 13.95h21.36m-15.6 0v-6.2m9.84 6.2v-6.2"/></svg>
