<svg xmlns="http://www.w3.org/2000/svg" width="32" height="36" viewBox="0 0 32 36"><path fill="#21bc12" d="M0 2.12v27.76C0 31.05.95 32 2.12 32h11.57L16 36l2.3-4h11.58c1.17 0 2.12-.95 2.12-2.12V2.12C32 .95 31.05 0 29.88 0H2.12C.95 0 0 .95 0 2.12"/><path fill="none" stroke="#fff" stroke-miterlimit="10" stroke-width="1.69" d="M4.86 17.88h22.28m-17.45 0V6.3"/><path fill="none" stroke="#fff" stroke-linecap="round" stroke-miterlimit="10" stroke-width="2.53" d="M9.69 28v-.64m13.04.64v-.64"/><path fill="none" stroke="#fff" stroke-linecap="round" stroke-miterlimit="10" stroke-width="2.17" d="M12.75 3.82h6.93"/><path fill="none" stroke="#fff" stroke-miterlimit="10" stroke-width="1.69" d="M22.73 17.88V6.3"/><rect width="22.26" height="20.5" x="4.87" y="6.3" fill="none" stroke="#fff" stroke-miterlimit="10" stroke-width="1.69" rx="2.66" ry="2.66"/><circle cx="9.69" cy="22.34" r="2.08" fill="#fff" stroke="#fff" stroke-width=".84"/><circle cx="22.73" cy="22.34" r="2.08" fill="#fff" stroke="#fff" stroke-width=".84"/></svg>
