<svg xmlns="http://www.w3.org/2000/svg" width="32" height="36" viewBox="0 0 32 36"><path fill="#4030d5" d="M0 2.12v27.76C0 31.05.95 32 2.12 32h11.57L16 36l2.3-4h11.58c1.17 0 2.12-.95 2.12-2.12V2.12C32 .95 31.05 0 29.88 0H2.12C.95 0 0 .95 0 2.12"/><path fill="none" stroke="#fff" stroke-miterlimit="10" stroke-width="1.63" d="M16 15.96V4.6"/><path stroke="#fff" stroke-linecap="round" stroke-width="1.63" d="m12.1 19.96-3.54-1.11m14.88 0-3.54 1.11"/><path fill="none" stroke="#fff" stroke-miterlimit="10" stroke-width=".93" d="M6.51 27.23H25.5"/><path stroke="#fff" stroke-linecap="round" stroke-width=".81" d="m5.32 28.2 4.65-3.74m12.06 0 4.65 3.73"/><path fill="none" stroke="#fff" stroke-miterlimit="10" stroke-width="1.63" d="M16 24.46H7.9a2.5 2.5 0 0 1-2.53-2.54v-8.36S6.98 5.88 7.38 5.4a2 2 0 0 1 1.57-.77h14.1c.61 0 1.16.3 1.57.77.4.49 2 8.17 2 8.17v8.37a2.5 2.5 0 0 1-2.53 2.54z"/><path fill="none" stroke="#fff" stroke-miterlimit="10" stroke-width="1.63" d="m5.37 13.56 9.09 2.05a7 7 0 0 0 3.08 0l9.09-2.04"/></svg>
